<svg width="120" height="41" fill="none" xmlns="http://www.w3.org/2000/svg"><path d="M115.55 40H4.44C2 40 0 37.75 0 35V5c0-2.75 2-5 4.44-5h111.11C118 0 120 2.25 120 5v30c0 2.75-2 5-4.45 5Z" fill="#000"/><path d="M115.55 0H4.44C2 0 0 2.25 0 5v30c0 2.75 2 5 4.44 5h111.11c2.45 0 4.45-2.25 4.45-5V5c0-2.75-2-5-4.45-5Zm0 .79c2.06 0 3.73 1.89 3.73 4.21v30c0 2.31-1.67 4.2-3.73 4.2H4.44C2.38 39.2.71 37.31.71 35V5C.71 2.68 2.38.79 4.44.79h111.11Z" fill="#A2A2A1"/><path d="M40.79 11h-.73c-.24-.77-.82-1.24-1.66-1.24-1.03 0-1.86.82-1.86 2.33 0 1.51.83 2.32 1.91 2.32.99 0 1.67-.65 1.69-1.7h-1.53v-.62h2.21v.62c0 1.44-.98 2.37-2.37 2.37-1.55 0-2.59-1.15-2.59-2.99 0-1.84 1.05-2.99 2.54-2.99 1.23 0 2.17.77 2.39 1.9Zm25.25-1.9c1.49 0 2.57 1.15 2.57 2.99 0 1.84-1.08 2.99-2.57 2.99-1.49 0-2.57-1.15-2.57-2.99 0-1.84 1.08-2.99 2.57-2.99ZM45.59 15h-3.56V9.18h3.51v.62h-2.81v1.97h2.63v.62h-2.63v1.98h2.86V15Zm2.74-5.2H46.5v-.62h4.36v.62h-1.83V15h-.7V9.8Zm5.87-.62h.7V15h-.7V9.18Zm3.63.62H56v-.62h4.36v.62h-1.83V15h-.7V9.8Zm15.88-.62h.69V15h-.68l-3.17-4.57h-.06V15h-.7V9.18h.68l3.18 4.58h.06V9.18Zm-7.67 5.23c1.06 0 1.89-.81 1.89-2.32 0-1.51-.83-2.33-1.89-2.33s-1.89.82-1.89 2.33c0 1.51.83 2.32 1.89 2.32Z" fill="#FFF" fill-rule="evenodd"/><path d="M93.47 29.34h1.64V18.33h-1.64v11.01Zm14.81-7.04-1.88 4.77h-.06l-1.96-4.77h-1.77l2.94 6.66-1.68 3.71h1.72l4.52-10.37h-1.83Zm-9.33 5.79c-.53 0-1.29-.27-1.29-.94 0-.85.94-1.17 1.75-1.17.72 0 1.06.15 1.5.36a2.005 2.005 0 0 1-1.96 1.75Zm.2-6.04c-1.19 0-2.42.53-2.93 1.69l1.46.61c.31-.61.89-.81 1.5-.81.85 0 1.72.51 1.73 1.42v.11c-.3-.17-.94-.42-1.72-.42-1.57 0-3.17.86-3.17 2.47 0 1.48 1.29 2.42 2.73 2.42 1.11 0 1.72-.49 2.1-1.07h.06v.85h1.59V25.1c0-1.96-1.46-3.05-3.35-3.05Zm-10.16 1.59h-2.34v-3.78h2.34c1.23 0 1.92 1.02 1.92 1.89 0 .85-.69 1.89-1.92 1.89Zm-.05-5.31H85v11.01h1.65v-4.17h2.29c1.83 0 3.62-1.32 3.62-3.42 0-2.1-1.79-3.42-3.62-3.42Zm-21.49 9.76c-1.13 0-2.08-.95-2.08-2.26 0-1.32.95-2.28 2.08-2.28 1.12 0 2.01.96 2.01 2.28 0 1.31-.89 2.26-2.01 2.26Zm1.89-5.18h-.06c-.36-.44-1.07-.83-1.97-.83-1.87 0-3.59 1.64-3.59 3.75 0 2.1 1.72 3.73 3.59 3.73.9 0 1.61-.39 1.97-.85h.06v.54c0 1.43-.77 2.2-2 2.2-1.01 0-1.63-.72-1.89-1.33l-1.43.59c.41.99 1.5 2.21 3.32 2.21 1.93 0 3.56-1.13 3.56-3.9V22.3h-1.56v.61Zm2.7 6.43h1.65V18.33h-1.65v11.01Zm4.08-3.63c-.05-1.45 1.12-2.19 1.96-2.19.65 0 1.2.33 1.39.8l-3.35 1.39Zm5.11-1.25c-.31-.84-1.27-2.38-3.21-2.38-1.93 0-3.54 1.51-3.54 3.74 0 2.1 1.59 3.74 3.72 3.74 1.72 0 2.72-1.05 3.13-1.66l-1.28-.85c-.43.63-1.01 1.04-1.85 1.04-.83 0-1.43-.39-1.81-1.14l5.01-2.07-.17-.42Zm-39.94-1.24v1.59h3.81c-.12.9-.42 1.55-.87 2-.55.55-1.42 1.16-2.94 1.16-2.34 0-4.18-1.88-4.18-4.22s1.84-4.23 4.18-4.23c1.26 0 2.19.5 2.87 1.14l1.12-1.12c-.95-.91-2.22-1.61-3.99-1.61-3.21 0-5.91 2.61-5.91 5.82 0 3.2 2.7 5.81 5.91 5.81 1.73 0 3.04-.56 4.06-1.63 1.05-1.05 1.38-2.52 1.38-3.71 0-.37-.03-.71-.09-1h-5.35Zm9.77 4.87c-1.14 0-2.12-.94-2.12-2.27 0-1.35.98-2.27 2.12-2.27 1.13 0 2.11.92 2.11 2.27 0 1.33-.98 2.27-2.11 2.27Zm0-6.01c-2.08 0-3.77 1.57-3.77 3.74 0 2.15 1.69 3.74 3.77 3.74 2.07 0 3.76-1.59 3.76-3.74 0-2.17-1.69-3.74-3.76-3.74Zm8.2 6.01c-1.13 0-2.11-.94-2.11-2.27 0-1.35.98-2.27 2.11-2.27 1.14 0 2.12.92 2.12 2.27 0 1.33-.98 2.27-2.12 2.27Zm0-6.01c-2.07 0-3.76 1.57-3.76 3.74 0 2.15 1.69 3.74 3.76 3.74 2.08 0 3.77-1.59 3.77-3.74 0-2.17-1.69-3.74-3.77-3.74Z" fill="#FFF"/><path d="m17.47 20.03-9.39 9.94v.01a2.535 2.535 0 0 0 2.45 1.87c.47 0 .91-.12 1.29-.34l.03-.02 10.56-6.09-4.94-5.37Z" fill="#EB3131"/><path d="M26.96 18.33h-.01l-4.56-2.64-5.14 4.56 5.16 5.15 4.54-2.61c.79-.43 1.33-1.27 1.33-2.24 0-.95-.53-1.79-1.32-2.22Z" fill="#F6B60B"/><path d="M8.08 11.09c-.06.21-.08.43-.08.66v17.57c0 .23.02.45.08.65l9.71-9.69-9.71-9.19Z" fill="#5778C5"/><path d="m17.54 20.53 4.85-4.85-10.55-6.1c-.38-.23-.83-.37-1.31-.37-1.17 0-2.16.8-2.45 1.88l9.46 9.44Z" fill="#3BAD49"/></svg>
