<svg width="635" height="449" fill="none" xmlns="http://www.w3.org/2000/svg"><defs><linearGradient id="a" x1="548.842" y1="230.958" x2="33.474" y2="249.953" gradientUnits="userSpaceOnUse"><stop offset=".805" stop-color="#FFD703"/><stop offset=".905" stop-color="#FBEC15"/></linearGradient><linearGradient id="b" x1="735.202" y1="229.788" x2="313.162" y2="245.343" gradientUnits="userSpaceOnUse"><stop offset=".805" stop-color="#FFD703"/><stop offset=".905" stop-color="#FBEC15"/></linearGradient></defs><path d="M0 0h635v449H0z"/><path d="M416.92 197.89 43.85 3.56C23.88-6.85 0 7.64 0 30.16v388.67c0 22.52 23.88 37.01 43.85 26.6L416.92 251.1c21.52-11.21 21.52-42 0-53.21Z" fill="url(#a)" fill-opacity=".6" fill-rule="evenodd"/><path d="M617.91 197.89 329.6 47.72c-19.97-10.4-43.85 4.09-43.85 26.61v300.33c0 22.52 23.88 37.01 43.85 26.61L617.91 251.1c21.52-11.21 21.52-42 0-53.21Z" fill="url(#b)" fill-opacity=".6" fill-rule="evenodd"/></svg>
