<svg width="336" height="280" fill="none" xmlns="http://www.w3.org/2000/svg"><defs><linearGradient id="a" x1="337.749" y1="143.756" x2="20.599" y2="156.273" gradientUnits="userSpaceOnUse"><stop offset=".805" stop-color="#FFD703"/><stop offset=".905" stop-color="#FBEC15"/></linearGradient><linearGradient id="b" x1="400.838" y1="142.613" x2="165.517" y2="152.68" gradientUnits="userSpaceOnUse"><stop offset=".702" stop-color="#FBEC15"/><stop offset="1" stop-color="#FFD703"/></linearGradient></defs><path d="M0 0h336v280H0z"/><path fill="none" d="M-96-46h459.925v371H-96z"/><path d="M241.03 113.3 44.61 3.73C24.61-7.42 0 7.04 0 29.93v219.13c0 22.89 24.61 37.35 44.61 26.2L241.03 165.7c20.51-11.45 20.51-40.96 0-52.4Z" fill="url(#a)" fill-opacity=".6" fill-rule="evenodd"/><path d="m321.46 113.51-125.71-76c-19.99-12.09-45.52 2.3-45.52 25.67v152.01c0 23.37 25.53 37.76 45.52 25.67l125.71-76c19.3-11.67 19.3-39.67 0-51.35Z" fill="url(#b)" fill-opacity=".6" fill-rule="evenodd"/></svg>
