<svg width="62" height="62" fill="none" xmlns="http://www.w3.org/2000/svg"><rect rx="31" width="62" height="62" fill="#232C33"/><path d="M43.28 18.69a16.148 16.148 0 0 0-11.45-4.74c-8.96 0-16.22 7.23-16.22 16.16 0 2.82.79 5.65 2.15 8.02L15.5 46.5l8.61-2.27c2.39 1.25 4.99 1.93 7.72 1.93 8.96 0 16.21-7.24 16.21-16.17-.11-4.18-1.7-8.25-4.76-11.3Zm-3.63 17.18c-.34.91-1.93 1.81-2.72 1.92-.68.12-1.59.12-2.49-.11-.57-.23-1.37-.45-2.27-.9-4.09-1.7-6.69-5.77-6.92-6.11-.23-.22-1.7-2.15-1.7-4.18s1.02-2.94 1.36-3.39c.34-.45.79-.45 1.13-.45h.8c.22 0 .56-.12.9.68.34.79 1.14 2.82 1.25 2.93.11.23.11.46 0 .68-.11.23-.23.45-.45.68-.23.23-.46.57-.57.68-.23.22-.45.45-.23.79.23.45 1.02 1.7 2.27 2.83 1.59 1.35 2.84 1.8 3.29 2.03.45.23.68.11.91-.11.23-.23 1.02-1.13 1.25-1.59.22-.45.56-.33.9-.22.34.11 2.39 1.13 2.73 1.35.45.23.68.34.79.46.11.34.11 1.13-.23 2.03Z" fill="#FFF"/></svg>
