<svg width="155" height="80" fill="none" xmlns="http://www.w3.org/2000/svg"><defs><linearGradient id="a" x1="27" y1="-14" x2="27" y2="94" gradientUnits="userSpaceOnUse"><stop stop-color="#FFD703"/><stop offset="1" stop-color="#FBEC15"/><stop offset="1" stop-color="#C7BB11"/><stop offset="1" stop-color="#FBEC15"/></linearGradient><linearGradient id="b" x1="69" y1="-14" x2="69" y2="94" gradientUnits="userSpaceOnUse"><stop stop-color="#FFD703"/><stop offset="1" stop-color="#FBEC15"/><stop offset="1" stop-color="#C7BB11"/><stop offset="1" stop-color="#FBEC15"/></linearGradient><linearGradient id="c" x1="111" y1="-14" x2="111" y2="94" gradientUnits="userSpaceOnUse"><stop stop-color="#FFD703"/><stop offset="1" stop-color="#FBEC15"/><stop offset="1" stop-color="#C7BB11"/><stop offset="1" stop-color="#FBEC15"/></linearGradient></defs><path d="M0 0h155v80H0z"/><path d="M66 31.33 15 1.89C8.33-1.96 0 2.85 0 10.55v58.89c0 7.7 8.33 12.51 15 8.66l51-29.44c6.66-3.85 6.66-13.48 0-17.33Z" fill="url(#a)" fill-rule="evenodd"/><path d="M108 31.33 57 1.89c-6.67-3.85-15 .96-15 8.66v58.89c0 7.7 8.33 12.51 15 8.66l51-29.44c6.66-3.85 6.66-13.48 0-17.33Z" fill="url(#b)" fill-rule="evenodd"/><path d="M150 31.33 99 1.89c-6.67-3.85-15 .96-15 8.66v58.89c0 7.7 8.33 12.51 15 8.66l51-29.44c6.66-3.85 6.66-13.48 0-17.33Z" fill="url(#c)" fill-rule="evenodd"/></svg>
