<svg width="120" height="40" fill="none" xmlns="http://www.w3.org/2000/svg"><path d="M110.44 0H8.46c-.31 0-.61 0-.92.01-.68.01-1.35.07-2.01.18-.67.11-1.31.32-1.91.62-.6.31-1.15.71-1.62 1.18-.48.48-.88 1.02-1.18 1.62-.31.6-.52 1.24-.63 1.91-.11.66-.17 1.33-.18 2-.01.31-.01.61-.01.92v23.11c0 .31 0 .61.01.93.01.67.07 1.34.18 2 .11.66.32 1.3.63 1.9.3.6.7 1.15 1.18 1.62.47.47 1.02.87 1.62 1.17.6.31 1.24.52 1.91.64.66.1 1.33.16 2.01.17.31.01.61.01.92.01.37.01.73.01 1.1.01h100.88c.36 0 .73 0 1.09-.01.3 0 .61 0 .92-.01.67-.01 1.34-.07 2.01-.17.66-.12 1.31-.33 1.91-.64.6-.3 1.15-.7 1.62-1.17.48-.48.88-1.02 1.19-1.62.3-.6.51-1.24.62-1.9.11-.66.17-1.33.18-2 .01-.32.01-.62.01-.93.01-.36.01-.72.01-1.09V9.53c0-.36 0-.73-.01-1.09 0-.31 0-.61-.01-.92-.01-.67-.07-1.34-.18-2-.11-.67-.32-1.31-.62-1.91-.62-1.2-1.6-2.18-2.81-2.8-.6-.3-1.25-.51-1.91-.62-.67-.11-1.34-.17-2.01-.18-.31-.01-.62-.01-.92-.01h-1.09Z" fill="#A6A6A6"/><path d="M8.46 39.12c-.3 0-.6 0-.9-.01-.63-.01-1.26-.06-1.88-.16-.58-.1-1.14-.29-1.66-.55-.52-.26-.99-.61-1.4-1.02-.42-.41-.76-.88-1.02-1.39-.27-.53-.45-1.09-.55-1.66-.1-.62-.16-1.25-.16-1.88-.01-.21-.02-.91-.02-.91V8.44s.01-.69.02-.9c0-.62.06-1.25.16-1.87.1-.58.28-1.14.55-1.66.26-.52.6-.99 1.01-1.4a5.9 5.9 0 0 1 1.41-1.02 5.67 5.67 0 0 1 1.66-.54C6.3.94 6.93.89 7.56.88l.9-.01h103.06l.92.01c.62.01 1.24.06 1.86.17.58.09 1.15.28 1.68.54 1.04.54 1.88 1.38 2.42 2.42.26.52.44 1.08.53 1.65.11.63.17 1.26.18 1.89v.89c.01.37.01.73.01 1.09v20.93c0 .36 0 .72-.01 1.07v.93c-.01.63-.07 1.25-.17 1.86-.1.58-.28 1.14-.55 1.67-.26.51-.6.98-1.01 1.38-.41.42-.89.76-1.41 1.03-.52.26-1.09.45-1.67.55-.62.1-1.25.15-1.87.16-.3.01-.61.01-.9.01H8.46Z" fill="#000"/><path d="M24.83 20.3c.01-.84.24-1.66.65-2.38.41-.73 1-1.34 1.72-1.78a5.216 5.216 0 0 0-1.75-1.55c-.69-.37-1.47-.58-2.26-.6-1.68-.18-3.31 1-4.17 1-.88 0-2.2-.99-3.62-.96a5.3 5.3 0 0 0-2.6.78c-.79.48-1.44 1.15-1.89 1.95-1.93 3.35-.49 8.27 1.37 10.98.93 1.32 2.02 2.8 3.44 2.75 1.39-.06 1.91-.88 3.59-.88 1.66 0 2.15.88 3.6.85 1.49-.03 2.43-1.33 3.33-2.67.67-.95 1.18-1.99 1.52-3.1-.87-.36-1.61-.97-2.13-1.76-.52-.78-.8-1.7-.8-2.63ZM22.09 12.21c.82-.98 1.22-2.23 1.12-3.49-1.24.13-2.39.72-3.21 1.65-.41.46-.72.99-.91 1.57-.2.58-.28 1.19-.24 1.8a4.15 4.15 0 0 0 3.24-1.53ZM42.42 27.13h-4.75l-1.14 3.36h-2.01l4.49-12.42h2.09l4.5 12.42h-2.05l-1.13-3.36Zm-4.26-1.54h3.76l-1.85-5.45h-.05l-1.86 5.45ZM55.31 25.96c0 2.82-1.51 4.63-3.79 4.63A3.11 3.11 0 0 1 48.66 29h-.04v4.49h-1.86V21.44h1.8v1.5h.04c.29-.5.71-.91 1.22-1.2.51-.28 1.08-.42 1.67-.4 2.3 0 3.82 1.82 3.82 4.62Zm-1.92 0c0-1.83-.95-3.03-2.4-3.03-1.42 0-2.38 1.23-2.38 3.03 0 1.83.96 3.05 2.38 3.05 1.45 0 2.4-1.2 2.4-3.05ZM65.3 25.96c0 2.82-1.51 4.63-3.79 4.63-.57.03-1.15-.11-1.65-.39-.51-.28-.92-.69-1.2-1.2h-.05v4.49h-1.86V21.44h1.8v1.5h.04c.29-.5.71-.91 1.22-1.2.51-.28 1.09-.42 1.67-.4 2.3 0 3.82 1.82 3.82 4.62Zm-1.91 0c0-1.83-.95-3.03-2.4-3.03-1.43 0-2.38 1.23-2.38 3.03 0 1.83.95 3.05 2.38 3.05 1.45 0 2.4-1.2 2.4-3.05ZM71.91 27.03c.13 1.23 1.33 2.04 2.97 2.04 1.57 0 2.7-.81 2.7-1.92 0-.96-.68-1.54-2.29-1.93l-1.62-.39c-2.28-.55-3.34-1.62-3.34-3.35 0-2.14 1.87-3.61 4.53-3.61 2.63 0 4.43 1.47 4.49 3.61h-1.88c-.11-1.24-1.14-1.99-2.64-1.99-1.5 0-2.53.76-2.53 1.86 0 .88.66 1.4 2.26 1.79l1.38.34c2.55.6 3.61 1.62 3.61 3.44 0 2.32-1.85 3.78-4.8 3.78-2.77 0-4.63-1.42-4.75-3.67h1.91ZM83.57 19.29v2.15h1.73v1.47h-1.73v4.99c0 .78.35 1.14 1.11 1.14.2-.01.41-.02.61-.05v1.47c-.34.06-.69.09-1.03.08-1.84 0-2.56-.69-2.56-2.44v-5.19h-1.32v-1.47h1.32v-2.15h1.87ZM86.3 25.96c0-2.84 1.68-4.63 4.31-4.63s4.3 1.79 4.3 4.63c0 2.86-1.66 4.64-4.3 4.64-2.64 0-4.31-1.78-4.31-4.64Zm6.72 0c0-1.95-.9-3.1-2.41-3.1-1.51 0-2.41 1.16-2.41 3.1 0 1.97.9 3.11 2.41 3.11 1.51 0 2.41-1.14 2.41-3.11ZM96.45 21.44h1.78v1.54h.04c.12-.48.4-.91.8-1.21.4-.29.89-.45 1.39-.43.21 0 .42.03.63.07v1.74c-.27-.08-.55-.12-.83-.11-.27-.01-.54.03-.8.14-.25.1-.47.26-.66.45-.18.2-.32.44-.4.69-.09.26-.12.53-.09.8v5.37h-1.86v-9.05ZM109.69 27.83c-.26 1.65-1.86 2.77-3.91 2.77-2.64 0-4.28-1.76-4.28-4.59 0-2.84 1.64-4.68 4.2-4.68 2.51 0 4.09 1.72 4.09 4.46v.64h-6.41v.11c-.03.33.01.67.12.99.11.31.29.6.52.84.23.25.51.44.82.56.31.13.64.19.98.18.44.04.88-.07 1.26-.29.38-.23.67-.58.84-.99h1.77Zm-6.3-2.7h4.54c.01-.3-.03-.6-.14-.88a2.155 2.155 0 0 0-1.21-1.25c-.28-.12-.58-.17-.88-.17-.31 0-.61.06-.89.17-.28.12-.53.29-.75.5-.21.21-.38.47-.5.75s-.17.58-.17.88ZM37.93 8.73c.39-.03.78.03 1.15.17.36.14.69.36.96.64a2.678 2.678 0 0 1 .7 2.15c0 1.91-1.03 3-2.81 3h-2.16V8.73h2.16Zm-1.23 5.12h1.12c.28.02.56-.03.82-.13.26-.11.49-.27.68-.48.19-.2.33-.45.41-.71.09-.27.11-.55.07-.83.03-.27.01-.55-.07-.82-.09-.26-.23-.5-.41-.71-.19-.2-.43-.36-.68-.47-.26-.1-.54-.15-.82-.13H36.7v4.28ZM41.79 12.44c-.03-.3.01-.6.1-.88.1-.28.25-.54.45-.76.2-.22.44-.39.72-.51.27-.12.56-.19.86-.19.3 0 .6.07.87.19s.52.29.72.51c.2.22.35.48.44.76.1.28.13.58.1.88.03.3 0 .59-.1.88-.09.28-.24.54-.44.76-.2.22-.45.4-.72.52-.27.12-.57.18-.87.18-.3 0-.59-.06-.86-.18-.28-.12-.52-.3-.72-.52-.2-.22-.35-.48-.45-.76-.09-.29-.13-.58-.1-.88Zm3.35 0c0-.98-.44-1.55-1.22-1.55-.77 0-1.21.57-1.21 1.55 0 .98.44 1.55 1.21 1.55.78 0 1.22-.57 1.22-1.55ZM51.71 14.69h-.92l-.93-3.31h-.07l-.93 3.31h-.92l-1.24-4.5h.9l.81 3.44h.06l.93-3.44h.86l.93 3.44h.07l.8-3.44h.89l-1.24 4.5ZM54 10.19h.86v.72h.06c.12-.26.31-.48.55-.62.24-.14.52-.21.8-.19.22-.01.44.02.65.1.2.08.39.2.54.37.15.16.26.35.32.56.07.21.09.43.05.65v2.91h-.89V12c0-.72-.31-1.08-.97-1.08a1.1 1.1 0 0 0-.44.07c-.14.06-.26.14-.36.25-.11.11-.18.24-.23.38-.05.14-.06.29-.05.44v2.63H54v-4.5ZM59.26 8.43h.89v6.26h-.89V8.43ZM61.39 12.44c-.03-.3 0-.6.09-.88.1-.28.25-.54.45-.76.2-.22.45-.39.72-.51.27-.12.57-.19.86-.19.3 0 .6.07.87.19s.52.29.72.51c.2.22.35.48.44.76.1.28.13.58.1.88.03.3 0 .59-.09.88a2.177 2.177 0 0 1-1.17 1.28c-.27.12-.57.18-.87.18-.29 0-.59-.06-.86-.18a2.177 2.177 0 0 1-1.17-1.28c-.09-.29-.12-.58-.09-.88Zm3.34 0c0-.98-.44-1.55-1.21-1.55-.78 0-1.21.57-1.21 1.55 0 .98.43 1.55 1.21 1.55.77 0 1.21-.57 1.21-1.55ZM66.58 13.42c0-.81.61-1.28 1.68-1.34l1.23-.08v-.38c0-.48-.32-.75-.93-.75-.5 0-.84.18-.94.5h-.86c.09-.77.82-1.27 1.84-1.27 1.13 0 1.77.56 1.77 1.52v3.07h-.86v-.63h-.07c-.14.23-.34.41-.58.54-.24.12-.5.18-.77.17-.19.02-.38 0-.56-.06a1.377 1.377 0 0 1-.83-.74c-.08-.17-.12-.36-.12-.55Zm2.91-.39v-.37l-1.11.07c-.62.04-.9.25-.9.65s.35.64.84.64c.14.01.28 0 .42-.04.13-.05.26-.11.37-.21.11-.09.2-.2.26-.33.07-.12.11-.26.12-.41ZM71.54 12.44c0-1.42.74-2.32 1.88-2.32a1.45 1.45 0 0 1 1.38.79h.07V8.43h.89v6.26h-.85v-.71h-.07a1.582 1.582 0 0 1-1.42.79c-1.15 0-1.88-.9-1.88-2.33Zm.92 0c0 .95.46 1.53 1.21 1.53s1.22-.58 1.22-1.53c0-.94-.47-1.53-1.22-1.53s-1.21.58-1.21 1.53ZM79.45 12.44c-.03-.3 0-.6.1-.88.09-.28.24-.54.44-.76.2-.22.45-.39.72-.51.27-.12.57-.19.87-.19.3 0 .59.07.86.19.28.12.52.29.72.51.2.22.35.48.45.76.09.28.13.58.1.88.03.3-.01.59-.1.88-.1.28-.25.54-.45.76-.2.22-.44.4-.72.52-.27.12-.56.18-.86.18-.3 0-.6-.06-.87-.18s-.52-.3-.72-.52c-.2-.22-.35-.48-.44-.76-.1-.29-.13-.58-.1-.88Zm3.34 0c0-.98-.44-1.55-1.21-1.55-.78 0-1.21.57-1.21 1.55 0 .98.43 1.55 1.21 1.55.77 0 1.21-.57 1.21-1.55ZM84.9 10.19h.86v.72h.07c.11-.26.3-.48.54-.62.24-.14.52-.21.8-.19.22-.01.45.02.65.1.21.08.39.2.54.37.15.16.26.35.33.56.06.21.08.43.05.65v2.91h-.89V12c0-.72-.32-1.08-.98-1.08a1.025 1.025 0 0 0-.8.32c-.1.11-.18.24-.23.38-.05.14-.06.29-.05.44v2.63h-.89v-4.5ZM93.77 9.07v1.14h.98v.75h-.98v2.31c0 .48.2.68.64.68.11 0 .23 0 .34-.02v.74c-.16.03-.32.05-.48.05-.99 0-1.39-.35-1.39-1.22v-2.54h-.72v-.75h.72V9.07h.89ZM95.97 8.43h.88v2.48h.07c.12-.26.32-.47.56-.62.25-.14.53-.21.82-.18.22-.02.44.02.64.1a1.511 1.511 0 0 1 .86.93c.06.21.08.43.05.65v2.9h-.89V12c0-.71-.33-1.08-.96-1.08-.16-.01-.31.01-.45.06-.15.06-.28.14-.39.25-.11.11-.19.24-.24.38-.05.15-.07.3-.06.45v2.63h-.89V8.43ZM105.05 13.48c-.12.41-.38.76-.74 1s-.79.35-1.22.3c-.29.01-.59-.05-.86-.17-.28-.11-.52-.29-.72-.51-.2-.22-.34-.48-.43-.77-.09-.28-.11-.58-.07-.87-.04-.3-.02-.6.07-.88.09-.29.23-.55.43-.77.2-.23.44-.41.71-.53.28-.12.57-.18.87-.18 1.26 0 2.01.86 2.01 2.27v.31h-3.18v.05c-.02.17 0 .33.06.49.05.16.14.3.25.42.11.12.25.22.4.29.16.06.32.09.49.09.21.03.43-.01.62-.11.19-.09.35-.25.45-.43h.86Zm-3.13-1.45h2.28c.01-.16-.01-.31-.06-.45-.05-.14-.14-.27-.24-.38-.1-.11-.23-.2-.37-.26-.14-.06-.29-.08-.44-.08-.16 0-.31.03-.45.08a1.16 1.16 0 0 0-.64.64c-.06.14-.09.29-.08.45Z" fill="#FFF"/></svg>
