<svg width="40" height="40" fill="none" xmlns="http://www.w3.org/2000/svg"><rect rx="20" width="40" height="40" fill="#232C33"/><path d="M24.09 10H15.9c-1.09 0-1.81.24-2.41.48-.6.24-1.21.6-1.81 1.2-.6.6-.84 1.09-1.2 1.81-.24.6-.36 1.32-.48 2.41v8.19c0 1.09.24 1.81.48 2.41.24.6.6 1.21 1.2 1.81.6.6 1.09.84 1.81 1.2.6.24 1.32.36 2.41.49h8.19c1.09 0 1.81-.25 2.41-.49.6-.24 1.21-.6 1.81-1.2.6-.6.84-1.09 1.2-1.81.24-.6.36-1.32.49-2.41V15.9c0-1.09-.25-1.81-.49-2.41-.24-.6-.6-1.21-1.2-1.81-.6-.6-1.09-.84-1.81-1.2-.6-.24-1.32-.36-2.41-.48Zm-8.19 1.8h8.19c.97 0 1.45.24 1.81.36.48.24.84.37 1.2.73s.61.72.73 1.2c.12.36.24.84.36 1.81v8.19c0 .97-.24 1.45-.36 1.81-.24.48-.37.84-.73 1.2s-.72.61-1.2.73c-.36.12-.84.24-1.81.36H15.9c-.97 0-1.45-.24-1.81-.36-.48-.24-.84-.37-1.2-.73s-.61-.72-.73-1.2c-.12-.36-.24-.84-.36-1.81V15.9c0-.97.24-1.45.36-1.81.24-.48.37-.84.73-1.2s.72-.61 1.2-.73c.36-.12.84-.24 1.81-.36Zm10.6 2.89a1.206 1.206 0 1 1-2.411.009 1.206 1.206 0 0 1 2.411-.009Zm-6.5.12c-2.9 0-5.19 2.29-5.19 5.19 0 2.89 2.29 5.18 5.19 5.18 2.89 0 5.18-2.29 5.18-5.18 0-2.9-2.29-5.19-5.18-5.19Zm0 8.56c-1.81 0-3.38-1.45-3.38-3.37 0-1.81 1.45-3.38 3.38-3.38 1.8 0 3.37 1.45 3.37 3.38 0 1.8-1.57 3.37-3.37 3.37Z" fill="#FFF" fill-rule="evenodd"/></svg>
