<svg width="512" height="512" fill="none" xmlns="http://www.w3.org/2000/svg"><defs><clipPath id="a"><rect rx="40" width="512" height="512" fill="#fff" fill-opacity="0"/></clipPath></defs><rect rx="40" width="512" height="512" fill="#FBEC15"/><g clip-path="url(#a)"><path d="M472.97 194.96c-4.32 2.54-8.7 4.82-12.98 7.29-5.95 3.44-11.8 7.06-17.75 10.51-4.32 2.5-8.76 4.8-13.08 7.29-7.92 4.56-15.8 9.2-23.7 13.8-6.35 3.7-12.67 7.43-19.04 11.08-8.73 5.02-17.47 10.01-26.26 14.91-.61.34-1.82.08-2.52-.31-8.3-4.62-16.55-9.35-24.83-14.01-8.08-4.54-16.15-9.11-24.3-13.5-1.19-.64-2.87-.52-4.32-.52-32.18-.03-64.37-.09-96.55.09-3.11.02-6.49 1.11-9.28 2.6-9.02 4.8-17.84 9.99-26.7 15.1-5.86 3.39-11.55 7.1-17.55 10.2-1.32.68-3.89-.17-5.49-1.04-6.78-3.7-13.45-7.64-20.11-11.57-9.74-5.74-19.36-11.69-29.17-17.31-13.93-7.98-28-15.7-41.95-23.62-5.56-3.16-10.96-6.58-16.46-9.83-.42-.25-1.06-.13-1.9-.18-.12-.62.06-1.23.57-2.1 4.65-2.64 9-4.99 13.29-7.44 18.7-10.69 37.5-21.22 56.04-32.18 21.77-12.86 44.62-16.52 68.75-8.44 7.53 2.53 14.45 6.85 21.73 10.2 1.78.82 4.63 2.09 5.66 1.34 4.67-3.42 8.87-7.49 13.7-11.72-16.74-9.66-33.24-19.18-50.56-29.17 9.14-4.09 17.44-7.78 25.72-11.53 2.7-1.22 5.33-2.58 7.99-3.87 1.36-.05 2.71-.09 4.45.2.77.68 1.11 1.1 1.55 1.36 15.15 8.77 30.26 17.6 45.52 26.17 1.33.75 3.95.39 5.42-.43 14.32-8.04 28.54-16.26 42.75-24.5 1.16-.67 2.01-1.85 3.01-2.8 1.35-.03 2.7-.06 4.44.24 1.69.91 2.99 1.5 4.3 2.06 9.65 4.15 19.3 8.29 28.95 12.43l-.12 1.3c-16.39 9.48-32.77 18.97-49.33 28.56 5.42 4.77 10.02 8.81 14.68 12.91 1.7-.91 3.47-1.85 5.22-2.82.46-.26.84-.66 1.29-.94 13.81-8.64 28.96-13.28 45.16-13.4 10.15-.07 20.49 1.46 29.61 6.15 15.93 8.2 31.48 17.16 47.13 25.9 12.39 6.92 24.7 13.99 37.05 21 0 0-.05.36-.03.54Zm-340.14 34.83c6.69 3.8 13.39 7.61 19.89 11.3 26.93-15.51 53.59-30.86 80.68-46.46-15.35-8.7-29.95-17.66-45.16-25.43-19.87-10.13-40.96-11.75-61.81-3.7-11.75 4.54-22.63 11.38-33.79 17.39-6.86 3.69-13.51 7.76-20.54 11.82 20.39 11.76 40.31 23.25 60.73 35.08Zm286.71-23.55c6.56-3.81 13.12-7.61 19.93-11.56-14.1-8.12-27.83-16.44-41.95-24.04-20.83-11.21-43.12-14.15-64.99-4.99-18.75 7.85-36.23 18.7-54.55 28.36.93.92 1.08 1.15 1.3 1.28 25.36 14.6 50.76 29.14 76.04 43.89 2.89 1.69 4.81 1.3 7.42-.22 18.71-10.89 37.5-21.66 56.8-32.72Z" fill="#232021"/><path d="M459.99 202.25c-5.95 3.44-11.8 7.06-17.75 10.51-4.32 2.5-8.76 4.8-13.08 7.29-7.92 4.56-15.8 9.2-23.7 13.8-6.35 3.7-12.67 7.43-19.04 11.08-8.73 5.02-17.47 10.01-26.26 14.91-.61.34-1.82.08-2.52-.31-8.3-4.62-16.55-9.35-24.83-14.01-8.08-4.54-16.15-9.11-24.3-13.5-1.19-.64-2.87-.52-4.32-.52-32.18-.03-64.37-.09-96.55.09-3.11.02-6.49 1.11-9.28 2.6-9.02 4.8-17.84 9.99-26.7 15.1-5.86 3.39-11.55 7.1-17.55 10.2-1.32.68-3.89-.17-5.49-1.04-6.78-3.7-13.45-7.64-20.11-11.57-9.74-5.74-19.36-11.69-29.17-17.31-13.93-7.98-28-15.7-41.95-23.62-5.56-3.16-10.96-6.58-16.46-9.83-.42-.25-1.06-.13-1.9-.18-.12-.62.06-1.23.57-2.1 4.65-2.64 9-4.99 13.29-7.44 18.7-10.69 37.5-21.22 56.04-32.18 21.77-12.86 44.62-16.52 68.75-8.44 7.53 2.53 14.45 6.85 21.73 10.2 1.78.82 4.63 2.09 5.66 1.34 4.67-3.42 8.87-7.49 13.7-11.72-16.74-9.66-33.24-19.18-50.56-29.17 9.14-4.09 17.44-7.78 25.72-11.53 2.7-1.22 5.33-2.58 7.99-3.87 1.36-.05 2.71-.09 4.45.2.77.68 1.11 1.1 1.55 1.36 15.15 8.77 30.26 17.6 45.52 26.17 1.33.75 3.95.39 5.42-.43 14.32-8.04 28.54-16.26 42.75-24.5 1.16-.67 2.01-1.85 3.01-2.8 1.35-.03 2.7-.06 4.44.24 1.69.91 2.99 1.5 4.3 2.06 9.65 4.15 19.3 8.29 28.95 12.43l-.12 1.3c-16.39 9.48-32.77 18.97-49.33 28.56 5.42 4.77 10.02 8.81 14.68 12.91 1.7-.91 3.47-1.85 5.22-2.82.46-.26.84-.66 1.29-.94 13.81-8.64 28.96-13.28 45.16-13.4 10.15-.07 20.49 1.46 29.61 6.15 15.93 8.2 31.48 17.16 47.13 25.9 12.39 6.92 24.7 13.99 37.05 21 0 0-.05.36-.03.54-4.32 2.54-8.7 4.82-12.98 7.29Zm-307.27 38.84c26.93-15.51 53.59-30.86 80.68-46.46-15.35-8.7-29.95-17.66-45.16-25.43-19.87-10.13-40.96-11.75-61.81-3.7-11.75 4.54-22.63 11.38-33.79 17.39-6.86 3.69-13.51 7.76-20.54 11.82 20.39 11.76 40.31 23.25 60.73 35.08 6.69 3.8 13.39 7.61 19.89 11.3Zm286.75-46.41c-14.1-8.12-27.83-16.44-41.95-24.04-20.83-11.21-43.12-14.15-64.99-4.99-18.75 7.85-36.23 18.7-54.55 28.36.93.92 1.08 1.15 1.3 1.28 25.36 14.6 50.76 29.14 76.04 43.89 2.89 1.69 4.81 1.3 7.42-.22 18.71-10.89 37.5-21.66 56.8-32.72 6.56-3.81 13.12-7.61 19.93-11.56Z" stroke="#000"/><path d="M249.14 328.35v-62.01c.27-.12.54-.23.8-.34 13.9 26.96 27.8 53.91 42.06 81.57h-24.92v61.87c-.44.19-.89.37-1.34.56-3.32-6.53-6.65-13.05-9.95-19.59-3.45-6.83-6.85-13.7-10.33-20.53-3.4-6.69-6.87-13.36-10.31-20.03-3.46-6.72-6.92-13.43-10.15-20.44 5.92-.32 11.62-.26 17.31-.37 2.28-.04 4.56-.45 6.83-.69Z" fill="#231F20"/><path d="M249.14 266.34c.27-.12.54-.23.8-.34 13.9 26.96 27.8 53.91 42.06 81.57h-24.92v61.87c-.44.19-.89.37-1.34.56-3.32-6.53-6.65-13.05-9.95-19.59-3.45-6.83-6.85-13.7-10.33-20.53-3.4-6.69-6.87-13.36-10.31-20.03-3.46-6.72-6.92-13.43-10.15-20.44 5.92-.32 11.62-.26 17.31-.37 2.28-.04 4.56-.45 6.83-.69v-62.01Z" stroke="#000"/><path d="M341 263v34.69c-1.54.12-2.7.28-3.86.28-17.41.02-34.83.07-52.24-.09-1.44-.02-3.55-1.23-4.2-2.46-5.5-10.49-10.74-21.11-15.7-32.03 25.56-.35 50.78-.38 76-.39Z" fill="#231F20"/><path d="M341 297.69c-1.54.12-2.7.28-3.86.28-17.41.02-34.83.07-52.24-.09-1.44-.02-3.55-1.23-4.2-2.46-5.5-10.49-10.74-21.11-15.7-32.03 25.56-.35 50.78-.38 76-.39v34.69Z" stroke="#000"/><path d="M237 263v35h-66c0-11.43 0-22.84.37-34.6 22.13-.38 43.88-.39 65.63-.4Z" fill="#231F20"/><path d="M237 298h-66c0-11.43 0-22.84.37-34.6 22.13-.38 43.88-.39 65.63-.4v35Z" stroke="#000"/><path d="M210.1 329c4.51 8.81 9.01 17.62 13.52 26.44.27.54.54 1.09.25 2.56-2.37-1.11-4.84-2.02-7.08-3.34-8.19-4.8-15.57-10.62-21.75-17.91-2.06-2.43-4.26-4.74-6.04-7.44 7.26-.32 14.18-.32 21.1-.31Z" fill="#231F20"/><path d="M223.62 355.44c.27.54.54 1.09.25 2.56-2.37-1.11-4.84-2.02-7.08-3.34-8.19-4.8-15.57-10.62-21.75-17.91-2.06-2.43-4.26-4.74-6.04-7.44 7.26-.32 14.18-.32 21.1-.31 4.51 8.81 9.01 17.62 13.52 26.44Z" stroke="#000"/><path d="M329 329.79c-6.31 6.47-12.62 12.94-19.7 20.21-3.96-7.65-7.27-14.01-10.3-20.69 9.11-.31 17.95-.35 26.8-.29 1.07 0 2.13.5 3.2.77Z" fill="#232021"/><path d="M309.3 350c-3.96-7.65-7.27-14.01-10.3-20.69 9.11-.31 17.95-.35 26.8-.29 1.07 0 2.13.5 3.2.77-6.31 6.47-12.62 12.94-19.7 20.21Z" stroke="#000"/><path d="M341 262.22c-25.07.3-50.35.32-75.99.4-.09-.26.19-.86.47-.86 25.1.03 50.21.11 75.52.46Z" fill="#B1AFB0"/><path d="M265.01 262.62c-.09-.26.19-.86.47-.86 25.1.03 50.21.11 75.52.46-25.07.3-50.35.32-75.99.4Z" stroke="#000"/><path d="M236 262.21c-21.41.29-43.02.31-65 .3.19-.27.75-.75 1.31-.75 21.16.03 42.32.11 63.69.45Z" fill="#B1AFB0"/><path d="M171 262.51c.19-.27.75-.75 1.31-.75 21.16.03 42.32.11 63.69.45-21.41.29-43.02.31-65 .3Z" stroke="#000"/><path d="M330 330c-1.37-.11-2.43-.45-3.5-.46-8.87-.03-17.74-.01-26.98.04-.74-.03-1.12-.1-1.49-.17L298 329h5.23c8.07 0 16.14-.03 24.2.04.96.01 1.91.57 2.57.96Z" fill="#9A9899"/><path d="M326.5 329.54c-8.87-.03-17.74-.01-26.98.04-.74-.03-1.12-.1-1.49-.17L298 329h5.23c8.07 0 16.14-.03 24.2.04.96.01 1.91.57 2.57.96-1.37-.11-2.43-.45-3.5-.46Z" stroke="#000"/><path d="M250 328.08c-2 .27-4.37.67-6.76.72-5.95.1-11.91.05-18.24.12.24-.26.86-.85 1.48-.85 7.71-.06 15.42-.03 23.52.01Z" fill="#999798"/><path d="M243.24 328.8c-5.95.1-11.91.05-18.24.12.24-.26.86-.85 1.48-.85 7.71-.06 15.42-.03 23.52.01-2 .27-4.37.67-6.76.72Z" stroke="#000"/><path d="M210 328.57c-6.72.29-13.63.28-20.9.33-.21-.25-.06-.83.09-.82 6.87.03 13.74.12 20.81.49Z" fill="#989697"/><path d="M189.1 328.9c-.21-.25-.06-.83.09-.82 6.87.03 13.74.12 20.81.49-6.72.29-13.63.28-20.9.33Z" stroke="#000"/></g></svg>
