<?xml version="1.0" standalone="no"?>
<!DOCTYPE svg PUBLIC "-//W3C//DTD SVG 20010904//EN"
 "http://www.w3.org/TR/2001/REC-SVG-20010904/DTD/svg10.dtd">
<svg version="1.0" xmlns="http://www.w3.org/2000/svg"
 width="512.000000pt" height="512.000000pt" viewBox="0 0 512.000000 512.000000"
 preserveAspectRatio="xMidYMid meet">
<metadata>
Created by potrace 1.14, written by Peter Selinger 2001-2017
</metadata>
<g transform="translate(0.000000,512.000000) scale(0.100000,-0.100000)"
fill="#000000" stroke="none">
<path d="M1848 4036 c-86 -39 -159 -74 -163 -77 -3 -4 107 -71 245 -150 l250
-144 -57 -52 c-32 -29 -66 -55 -76 -59 -11 -3 -66 17 -145 55 -170 80 -228 95
-377 95 -127 -1 -196 -14 -309 -60 -78 -31 -825 -456 -825 -469 -1 -13 32 -32
359 -218 146 -82 358 -205 472 -273 234 -139 280 -164 304 -164 9 0 91 44 183
97 91 54 203 117 249 140 l83 43 515 0 c455 0 519 -2 547 -16 18 -9 131 -72
253 -140 121 -68 228 -124 236 -124 17 0 139 68 498 277 214 124 282 163 532
307 59 33 108 64 108 68 0 8 -56 41 -365 215 -575 323 -559 317 -765 317 -128
-1 -155 -4 -233 -27 -87 -27 -176 -67 -250 -114 l-38 -24 -58 50 c-32 28 -63
56 -69 64 -9 10 38 42 231 153 133 77 241 144 241 150 -2 14 -326 154 -358
154 -17 0 -39 -8 -50 -19 -23 -20 -342 -205 -418 -241 l-46 -23 -246 141
c-165 95 -255 142 -274 141 -15 -1 -98 -33 -184 -73z m-153 -545 c44 -11 107
-32 140 -46 99 -44 487 -267 478 -276 -4 -4 -181 -107 -393 -229 -239 -138
-391 -219 -402 -217 -34 9 -777 442 -775 451 8 24 467 269 563 300 125 41 265
46 389 17z m2071 -1 c102 -26 185 -66 422 -202 155 -89 191 -113 180 -123 -18
-17 -743 -432 -768 -440 -15 -5 -120 51 -416 221 -217 125 -391 231 -387 235
16 15 311 174 427 230 67 32 155 68 196 78 102 27 242 27 346 1z"/>
<path d="M1716 2502 c-3 -3 -6 -86 -6 -184 l0 -178 330 0 330 0 0 175 c0 132
-3 177 -12 180 -21 6 -636 13 -642 7z"/>
<path d="M2650 2489 c1 -13 38 -96 83 -184 l82 -160 298 -3 297 -2 0 180 0
180 -243 0 c-134 0 -305 3 -380 7 l-137 6 0 -24z"/>
<path d="M2488 2153 l-3 -308 -120 -5 c-66 -3 -120 -7 -120 -10 2 -15 411
-810 417 -810 5 0 8 140 8 310 l0 310 126 0 c79 0 124 4 122 10 -10 32 -414
809 -420 810 -4 0 -9 -138 -10 -307z"/>
<path d="M1880 1833 c0 -18 147 -167 203 -207 56 -39 138 -86 152 -86 16 0 -2
46 -66 166 l-70 134 -110 0 c-60 0 -109 -3 -109 -7z"/>
<path d="M2982 1833 c2 -5 27 -55 56 -112 l54 -104 101 99 c56 54 104 100 106
102 3 2 -1 7 -9 12 -18 11 -313 13 -308 3z"/>
</g>
</svg>
